<svg id="Capa_1" enable-background="new 0 0 510 510" height="512" viewBox="0 0 510 510" width="512" xmlns="http://www.w3.org/2000/svg" xmlns:xlink="http://www.w3.org/1999/xlink"><linearGradient id="SVGID_1_" gradientUnits="userSpaceOnUse" x1="68.217" x2="452.683" y1="24.077" y2="408.543"><stop offset="0" stop-color="#b5dbff"/><stop offset="1" stop-color="#76e2f8"/></linearGradient><linearGradient id="SVGID_2_" gradientUnits="userSpaceOnUse" x1="505.87" x2="165.698" y1="467.85" y2="127.677"><stop offset="0" stop-color="#b5dbff" stop-opacity="0"/><stop offset=".2428" stop-color="#93cef6" stop-opacity=".243"/><stop offset=".5763" stop-color="#6abfec" stop-opacity=".576"/><stop offset=".8403" stop-color="#51b5e5" stop-opacity=".84"/><stop offset="1" stop-color="#48b2e3"/></linearGradient><linearGradient id="SVGID_3_" gradientUnits="userSpaceOnUse" x1="189.229" x2="338.659" y1="154.919" y2="304.349"><stop offset="0" stop-color="#edf5ff"/><stop offset="1" stop-color="#d5e8fe"/></linearGradient><linearGradient id="lg1"><stop offset="0" stop-color="#b5dbff" stop-opacity="0"/><stop offset=".1734" stop-color="#8fc5e9" stop-opacity=".173"/><stop offset=".4541" stop-color="#56a4c8" stop-opacity=".454"/><stop offset=".6955" stop-color="#2d8db1" stop-opacity=".696"/><stop offset=".8853" stop-color="#147ea2" stop-opacity=".885"/><stop offset="1" stop-color="#0b799d"/></linearGradient><linearGradient id="SVGID_4_" gradientUnits="userSpaceOnUse" x1="301.334" x2="-5.659" xlink:href="#lg1" y1="263.591" y2="116.235"/><linearGradient id="SVGID_5_" gradientUnits="userSpaceOnUse" x1="418.772" x2="313.712" xlink:href="#lg1" y1="323.183" y2="243.364"/><linearGradient id="SVGID_6_" gradientUnits="userSpaceOnUse" x1="401.086" x2="225.987" xlink:href="#lg1" y1="398.053" y2="222.954"/><linearGradient id="SVGID_7_" gradientUnits="userSpaceOnUse" x1="193.601" x2="320.838" y1="190.568" y2="317.804"><stop offset="0" stop-color="#b9dd39"/><stop offset="1" stop-color="#90cc1c"/></linearGradient><linearGradient id="SVGID_8_" gradientUnits="userSpaceOnUse" x1="374.986" x2="327.673" y1="329.247" y2="281.933"><stop offset="0" stop-color="#6b0" stop-opacity="0"/><stop offset="1" stop-color="#6b0"/></linearGradient><linearGradient id="SVGID_9_" gradientUnits="userSpaceOnUse" x1="243.382" x2="375.165" y1="154.881" y2="286.664"><stop offset="0" stop-color="#0b799d"/><stop offset="1" stop-color="#07485e"/></linearGradient><g><g><path d="m446.166 67.941c-56.18 0-110.644-19.357-154.224-54.811-21.517-17.506-52.367-17.506-73.884 0-43.579 35.455-98.044 54.811-154.223 54.811-17.543 0-31.764 14.221-31.764 31.764v85.132c0 109.211 49.177 212.617 133.894 281.54l26.147 21.272c36.631 29.802 89.149 29.802 125.78 0l26.147-21.272c84.716-68.922 133.894-172.333 133.894-281.544 0-32.684 0-63.399 0-85.135-.003-17.543-14.224-31.757-31.767-31.757z" fill="url(#SVGID_1_)"/><path d="m255 481.973c-6.124 0-12.114-2.129-16.865-5.994l-50.009-40.686c-36.527-29.718-66.525-67.904-86.749-110.429s-30.914-89.893-30.914-136.982v-67.558c0-8.173 6.682-15.123 14.844-15.554 55.657-2.943 109.464-23.582 152.828-58.862 4.752-3.866 10.741-5.994 16.865-5.994 6.125 0 12.114 2.128 16.865 5.993 43.366 35.281 97.174 55.92 152.831 58.863 8.16.431 14.841 7.38 14.841 15.552v67.556c0 47.09-10.69 94.458-30.914 136.984-20.224 42.527-50.221 80.713-86.748 110.431l-50.01 40.686c-4.751 3.866-10.74 5.994-16.865 5.994z" fill="url(#SVGID_2_)"/><path d="m255 463.322c-5.608 0-11.092-1.949-15.442-5.488l-45.789-37.252c-33.445-27.21-60.911-62.174-79.428-101.11s-28.305-82.307-28.305-125.423v-61.857c0-7.483 6.118-13.846 13.591-14.242 50.96-2.695 100.227-21.592 139.931-53.895 4.351-3.539 9.835-5.489 15.442-5.489 5.608 0 11.092 1.949 15.441 5.488 39.706 32.304 88.974 51.201 139.934 53.896 7.472.395 13.589 6.757 13.589 14.239v61.855c0 43.116-9.788 86.487-28.305 125.425s-45.983 73.902-79.428 101.112l-45.79 37.252c-4.349 3.54-9.833 5.489-15.441 5.489z" fill="url(#SVGID_3_)"/><path d="m477.93 99.698c0-17.543-14.221-31.757-31.764-31.757-56.18 0-110.644-19.357-154.224-54.811-10.759-8.753-23.85-13.13-36.942-13.13v510c22.287 0 44.574-7.45 62.89-22.351l26.147-21.272c84.716-68.922 133.893-172.333 133.894-281.544-.001-32.685-.001-63.4-.001-85.135z" fill="url(#SVGID_4_)"/></g><path d="m421.426 148.41c-9.991-9.99-26.189-7.942-36.18 2.048l-124.649 124.648c-1.215 1.215-4.649 3.518-5.597 3.518s-2.334-.255-3.55-1.471l-47.78-47.78c-9.991-9.99-25.165-9.99-35.156 0-9.991 9.991-11.015 24.141-1.024 34.132l190.716 190.716c71.129-64.213 113.982-153.998 119.184-249.654z" fill="url(#SVGID_5_)"/><path d="m344.037 466.376c60.467-49.194 102.822-115.961 122.119-189.864l-115.285-115.284c-24.06-25.412-58.112-39.22-95.87-39.22-71.939-.001-129.961 58.022-129.96 129.961 0 37.758 13.808 71.809 39.221 95.869l138.558 138.558c4.233 4.233 10.983 4.579 15.627.801z" fill="url(#SVGID_6_)"/><circle cx="255" cy="251.966" fill="url(#SVGID_7_)" r="132.007"/><path d="m361.599 174.105-101.002 101.001c-1.215 1.215-4.649 3.518-5.597 3.518s-2.334-.255-3.55-1.471l-47.78-47.78c-9.991-9.99-25.165-9.99-35.156 0-9.991 9.991-11.015 24.141-1.024 34.132l117.13 117.13c58.643-13.445 102.387-65.947 102.387-128.669 0-29.12-9.437-56.032-25.408-77.861z" fill="url(#SVGID_8_)"/><path d="m255 327.742c-15.008 0-29.118-5.845-39.73-16.457l-47.78-47.779c-9.991-9.991-9.991-26.189 0-36.18 9.99-9.99 26.188-9.99 36.18 0l47.78 47.78c1.216 1.216 2.602 1.471 3.55 1.471s2.334-.255 3.55-1.471l126.696-126.696c9.991-9.99 26.189-9.99 36.18 0 9.991 9.991 9.991 26.189 0 36.18l-126.696 126.695c-10.612 10.612-24.722 16.457-39.73 16.457z" fill="url(#SVGID_9_)"/></g></svg>